{
  "accessors": [
    {
      "bufferView": 2,
      "componentType": 5126,
      "count": 10295,
      "max": [
        0.3572441041469574,
        0.2439553141593933,
        0.8169031739234924
      ],
      "min": [
        -0.22786760330200195,
        -0.24395528435707092,
        5.948316811554832e-06
      ],
      "type": "VEC3"
    },
    {
      "bufferView": 2,
      "byteOffset": 123540,
      "componentType": 5126,
      "count": 10295,
      "max": [
        1.0,
        1.0,
        0.9999724626541138
      ],
      "min": [
        -1.0,
        -1.0,
        -1.0
      ],
      "type": "VEC3"
    },
    {
      "bufferView": 3,
      "componentType": 5126,
      "count": 10295,
      "max": [
        0.9999991059303284,
        1.0,
        1.0,
        1.0
      ],
      "min": [
        -0.9999991059303284,
        -1.0,
        -1.0,
        1.0
      ],
      "type": "VEC4"
    },
    {
      "bufferView": 1,
      "componentType": 5126,
      "count": 10295,
      "max": [
        0.9951171875,
        0.9665219187736511
      ],
      "min": [
        0.0048828125,
        0.0048828125
      ],
      "type": "VEC2"
    },
    {
      "bufferView": 1,
      "byteOffset": 82360,
      "componentType": 5126,
      "count": 10295,
      "max": [
        0.9951171875,
        0.9665219187736511
      ],
      "min": [
        0.0048828125,
        0.0048828125
      ],
      "type": "VEC2"
    },
    {
      "bufferView": 1,
      "byteOffset": 164720,
      "componentType": 5126,
      "count": 10295,
      "max": [
        0.9951171875,
        0.9665219187736511
      ],
      "min": [
        0.0048828125,
        0.0048828125
      ],
      "type": "VEC2"
    },
    {
      "bufferView": 0,
      "componentType": 5125,
      "count": 48000,
      "type": "SCALAR"
    }
  ],
  "asset": {
    "extras": {
      "author": "shuvalov.di (https://sketchfab.com/shuvalov.di)",
      "license": "CC-BY-NC-SA-4.0 (http://creativecommons.org/licenses/by-nc-sa/4.0/)",
      "source": "https://sketchfab.com/3d-models/chair-02f920ac307b47dda8d6fa14e5fe1da5",
      "title": "Chair"
    },
    "generator": "Sketchfab-15.24.0",
    "version": "2.0"
  },
  "bufferViews": [
    {
      "buffer": 0,
      "byteLength": 192000,
      "name": "floatBufferViews",
      "target": 34963
    },
    {
      "buffer": 0,
      "byteLength": 247080,
      "byteOffset": 192000,
      "byteStride": 8,
      "name": "floatBufferViews",
      "target": 34962
    },
    {
      "buffer": 0,
      "byteLength": 247080,
      "byteOffset": 439080,
      "byteStride": 12,
      "name": "floatBufferViews",
      "target": 34962
    },
    {
      "buffer": 0,
      "byteLength": 164720,
      "byteOffset": 686160,
      "byteStride": 16,
      "name": "floatBufferViews",
      "target": 34962
    }
  ],
  "buffers": [
    {
      "byteLength": 850880,
      "uri": "scene.bin"
    }
  ],
  "images": [
    {
      "uri": "textures/Chair_baseColor.jpeg"
    },
    {
      "uri": "textures/Chair_metallicRoughness.png"
    },
    {
      "uri": "textures/Chair_normal.png"
    }
  ],
  "materials": [
    {
      "doubleSided": true,
      "name": "Chair",
      "normalTexture": {
        "index": 2
      },
      "occlusionTexture": {
        "index": 1,
        "strength": 0.55
      },
      "pbrMetallicRoughness": {
        "baseColorTexture": {
          "index": 0
        },
        "metallicRoughnessTexture": {
          "index": 1
        }
      }
    }
  ],
  "meshes": [
    {
      "name": "Chair_Chair_0",
      "primitives": [
        {
          "attributes": {
            "NORMAL": 1,
            "POSITION": 0,
            "TANGENT": 2,
            "TEXCOORD_0": 3,
            "TEXCOORD_1": 4,
            "TEXCOORD_2": 5
          },
          "indices": 6,
          "material": 0,
          "mode": 4
        }
      ]
    }
  ],
  "nodes": [
    {
      "children": [
        1
      ],
      "matrix": [
        1.0526316165924072,
        0.0,
        0.0,
        0.0,
        0.0,
        2.337311714378581e-16,
        -1.0526316165924072,
        0.0,
        0.0,
        1.0526316165924072,
        2.337311714378581e-16,
        0.0,
        0.0,
        0.0,
        0.0,
        1.0
      ],
      "name": "Sketchfab_model"
    },
    {
      "children": [
        2
      ],
      "matrix": [
        0.009999999776482582,
        0.0,
        0.0,
        0.0,
        0.0,
        0.0,
        0.009999999776482582,
        0.0,
        0.0,
        -0.009999999776482582,
        0.0,
        0.0,
        0.0,
        0.0,
        0.0,
        1.0
      ],
      "name": "11f31249b00442f0aeceddcbcfedf484.fbx"
    },
    {
      "children": [
        3
      ],
      "name": "RootNode"
    },
    {
      "children": [
        4
      ],
      "matrix": [
        113.45962524096625,
        1.4251384971438456e-12,
        -0.0008487213911043767,
        0.0,
        -0.0008487213911043652,
        -1.8484919228317977e-05,
        -113.45962524096473,
        0.0,
        -1.3969940410260362e-10,
        113.45962524413912,
        -1.8484919228317977e-05,
        0.0,
        0.0,
        0.0,
        0.0,
        1.0
      ],
      "name": "Chair"
    },
    {
      "mesh": 0,
      "name": "Chair_Chair_0"
    }
  ],
  "samplers": [
    {
      "magFilter": 9729,
      "minFilter": 9987,
      "wrapS": 10497,
      "wrapT": 10497
    }
  ],
  "scene": 0,
  "scenes": [
    {
      "name": "Sketchfab_Scene",
      "nodes": [
        0
      ]
    }
  ],
  "textures": [
    {
      "sampler": 0,
      "source": 0
    },
    {
      "sampler": 0,
      "source": 1
    },
    {
      "sampler": 0,
      "source": 2
    }
  ]
}
