{
  "accessors": [
    {
      "bufferView": 0,
      "componentType": 5125,
      "count": 2100,
      "type": "SCALAR"
    },
    {
      "bufferView": 1,
      "componentType": 5126,
      "count": 696,
      "max": [
        101.84447479248,
        75.4016571044922,
        52.4835510253906
      ],
      "min": [
        -101.844482421875,
        -0.798347473144531,
        -52.4835586547852
      ],
      "type": "VEC3"
    },
    {
      "bufferView": 2,
      "componentType": 5126,
      "count": 696,
      "type": "VEC3"
    },
    {
      "bufferView": 3,
      "componentType": 5126,
      "count": 696,
      "type": "VEC4"
    },
    {
      "bufferView": 4,
      "componentType": 5126,
      "count": 696,
      "type": "VEC2"
    },
    {
      "bufferView": 5,
      "componentType": 5125,
      "count": 5844,
      "type": "SCALAR"
    },
    {
      "bufferView": 6,
      "componentType": 5126,
      "count": 1277,
      "max": [
        30.5748825073242,
        97.8106994628906,
        32.7623977661133
      ],
      "min": [
        -30.5748825073242,
        37.4915542602539,
        -32.7623748779297
      ],
      "type": "VEC3"
    },
    {
      "bufferView": 7,
      "componentType": 5126,
      "count": 1277,
      "type": "VEC3"
    },
    {
      "bufferView": 8,
      "componentType": 5126,
      "count": 1277,
      "type": "VEC4"
    },
    {
      "bufferView": 9,
      "componentType": 5126,
      "count": 1277,
      "type": "VEC2"
    },
    {
      "bufferView": 10,
      "componentType": 5125,
      "count": 3960,
      "type": "SCALAR"
    },
    {
      "bufferView": 11,
      "componentType": 5126,
      "count": 960,
      "max": [
        26.8379287719727,
        39.734790802002,
        31.1372146606445
      ],
      "min": [
        -26.9349365234375,
        -0.0440101623535156,
        -26.8080062866211
      ],
      "type": "VEC3"
    },
    {
      "bufferView": 12,
      "componentType": 5126,
      "count": 960,
      "type": "VEC3"
    },
    {
      "bufferView": 13,
      "componentType": 5126,
      "count": 960,
      "type": "VEC4"
    },
    {
      "bufferView": 14,
      "componentType": 5126,
      "count": 960,
      "type": "VEC2"
    }
  ],
  "asset": {
    "generator": "Adobe Substance 3D Painter 9.1.0",
    "version": "2.0"
  },
  "bufferViews": [
    {
      "buffer": 0,
      "byteLength": 8400,
      "target": 34963
    },
    {
      "buffer": 0,
      "byteLength": 8352,
      "byteOffset": 8400,
      "target": 34962
    },
    {
      "buffer": 0,
      "byteLength": 8352,
      "byteOffset": 16752,
      "target": 34962
    },
    {
      "buffer": 0,
      "byteLength": 11136,
      "byteOffset": 25104,
      "target": 34962
    },
    {
      "buffer": 0,
      "byteLength": 5568,
      "byteOffset": 36240,
      "target": 34962
    },
    {
      "buffer": 0,
      "byteLength": 23376,
      "byteOffset": 41808,
      "target": 34963
    },
    {
      "buffer": 0,
      "byteLength": 15324,
      "byteOffset": 65184,
      "target": 34962
    },
    {
      "buffer": 0,
      "byteLength": 15324,
      "byteOffset": 80508,
      "target": 34962
    },
    {
      "buffer": 0,
      "byteLength": 20432,
      "byteOffset": 95832,
      "target": 34962
    },
    {
      "buffer": 0,
      "byteLength": 10216,
      "byteOffset": 116264,
      "target": 34962
    },
    {
      "buffer": 0,
      "byteLength": 15840,
      "byteOffset": 126480,
      "target": 34963
    },
    {
      "buffer": 0,
      "byteLength": 11520,
      "byteOffset": 142320,
      "target": 34962
    },
    {
      "buffer": 0,
      "byteLength": 11520,
      "byteOffset": 153840,
      "target": 34962
    },
    {
      "buffer": 0,
      "byteLength": 15360,
      "byteOffset": 165360,
      "target": 34962
    },
    {
      "buffer": 0,
      "byteLength": 7680,
      "byteOffset": 180720,
      "target": 34962
    }
  ],
  "buffers": [
    {
      "byteLength": 188400,
      "uri": "Table_Chair_01.bin"
    }
  ],
  "images": [
    {
      "uri": "Table_1_2_baseColor.png"
    },
    {
      "uri": "Table_1_2_occlusionRoughnessMetallic.png"
    },
    {
      "uri": "Table_1_2_normal.png"
    },
    {
      "uri": "Table_1_2_emissive.png"
    },
    {
      "uri": "TX_Chair_1_1_baseColor.png"
    },
    {
      "uri": "TX_Chair_1_1_occlusionRoughnessMetallic.png"
    },
    {
      "uri": "TX_Chair_1_1_normal.png"
    },
    {
      "uri": "TX_Chair_1_1_emissive.png"
    },
    {
      "uri": "TX_Chair_1_2_baseColor.png"
    },
    {
      "uri": "TX_Chair_1_2_occlusionRoughnessMetallic.png"
    },
    {
      "uri": "TX_Chair_1_2_normal.png"
    },
    {
      "uri": "TX_Chair_1_2_emissive.png"
    }
  ],
  "materials": [
    {
      "alphaMode": "OPAQUE",
      "emissiveFactor": [
        1.0,
        1.0,
        1.0
      ],
      "emissiveTexture": {
        "index": 3
      },
      "name": "Table_1_2",
      "normalTexture": {
        "index": 2
      },
      "occlusionTexture": {
        "index": 1
      },
      "pbrMetallicRoughness": {
        "baseColorTexture": {
          "index": 0
        },
        "metallicRoughnessTexture": {
          "index": 1
        }
      }
    },
    {
      "alphaMode": "OPAQUE",
      "emissiveFactor": [
        1.0,
        1.0,
        1.0
      ],
      "emissiveTexture": {
        "index": 7
      },
      "name": "TX_Chair_1_1",
      "normalTexture": {
        "index": 6
      },
      "occlusionTexture": {
        "index": 5
      },
      "pbrMetallicRoughness": {
        "baseColorTexture": {
          "index": 4
        },
        "metallicRoughnessTexture": {
          "index": 5
        }
      }
    },
    {
      "alphaMode": "OPAQUE",
      "emissiveFactor": [
        1.0,
        1.0,
        1.0
      ],
      "emissiveTexture": {
        "index": 11
      },
      "name": "TX_Chair_1_2",
      "normalTexture": {
        "index": 10
      },
      "occlusionTexture": {
        "index": 9
      },
      "pbrMetallicRoughness": {
        "baseColorTexture": {
          "index": 8
        },
        "metallicRoughnessTexture": {
          "index": 9
        }
      }
    }
  ],
  "meshes": [
    {
      "name": "Table_1_1",
      "primitives": [
        {
          "attributes": {
            "NORMAL": 2,
            "POSITION": 1,
            "TANGENT": 3,
            "TEXCOORD_0": 4
          },
          "indices": 0,
          "material": 0,
          "mode": 4
        }
      ]
    },
    {
      "name": "Chair_1_1",
      "primitives": [
        {
          "attributes": {
            "NORMAL": 7,
            "POSITION": 6,
            "TANGENT": 8,
            "TEXCOORD_0": 9
          },
          "indices": 5,
          "material": 1,
          "mode": 4
        }
      ]
    },
    {
      "name": "Chair_1_1",
      "primitives": [
        {
          "attributes": {
            "NORMAL": 12,
            "POSITION": 11,
            "TANGENT": 13,
            "TEXCOORD_0": 14
          },
          "indices": 10,
          "material": 2,
          "mode": 4
        }
      ]
    }
  ],
  "nodes": [
    {
      "children": [
        1,
        3
      ],
      "name": "RootNode",
      "scale": [
        0.00999999977648258,
        0.00999999977648258,
        0.00999999977648258
      ]
    },
    {
      "children": [
        2
      ],
      "name": "Table_1_1",
      "translation": [
        0.0,
        0.0,
        396.024871826172
      ]
    },
    {
      "mesh": 0,
      "name": "Table_1_1"
    },
    {
      "children": [
        4,
        5
      ],
      "name": "Chair_1_1",
      "translation": [
        0.0,
        0.0,
        218.399505615234
      ]
    },
    {
      "mesh": 1,
      "name": "Chair_1_1"
    },
    {
      "mesh": 2,
      "name": "Chair_1_1"
    }
  ],
  "samplers": [
    {
      "magFilter": 9729,
      "minFilter": 9985,
      "wrapS": 10497,
      "wrapT": 10497
    }
  ],
  "scene": 0,
  "scenes": [
    {
      "name": "Scene",
      "nodes": [
        0
      ]
    }
  ],
  "textures": [
    {
      "sampler": 0,
      "source": 0
    },
    {
      "sampler": 0,
      "source": 1
    },
    {
      "sampler": 0,
      "source": 2
    },
    {
      "sampler": 0,
      "source": 3
    },
    {
      "sampler": 0,
      "source": 4
    },
    {
      "sampler": 0,
      "source": 5
    },
    {
      "sampler": 0,
      "source": 6
    },
    {
      "sampler": 0,
      "source": 7
    },
    {
      "sampler": 0,
      "source": 8
    },
    {
      "sampler": 0,
      "source": 9
    },
    {
      "sampler": 0,
      "source": 10
    },
    {
      "sampler": 0,
      "source": 11
    }
  ]
}