{
  "accessors": [
    {
      "bufferView": 2,
      "componentType": 5126,
      "count": 3160,
      "max": [
        19.263786315917969,
        19.978185653686523,
        2.8215789794921875
      ],
      "min": [
        -20.093669891357422,
        -20.200162887573242,
        -71.92303466796875
      ],
      "type": "VEC3"
    },
    {
      "bufferView": 2,
      "byteOffset": 37920,
      "componentType": 5126,
      "count": 3160,
      "max": [
        0.98916566371917725,
        0.99670916795730591,
        0.99999994039535522
      ],
      "min": [
        -0.99031639099121094,
        -0.99553543329238892,
        -0.99999994039535522
      ],
      "type": "VEC3"
    },
    {
      "bufferView": 3,
      "componentType": 5126,
      "count": 3160,
      "max": [
        1,
        0.9964069128036499,
        0.99996763467788696,
        1
      ],
      "min": [
        -1,
        -0.99916255474090576,
        -0.99997079372406006,
        1
      ],
      "type": "VEC4"
    },
    {
      "bufferView": 1,
      "componentType": 5126,
      "count": 3160,
      "max": [
        1.1279730796813965,
        0.83130043745040894
      ],
      "min": [
        -0.12782537937164307,
        0.1688556969165802
      ],
      "type": "VEC2"
    },
    {
      "bufferView": 1,
      "byteOffset": 25280,
      "componentType": 5126,
      "count": 3160,
      "max": [
        0.84011059999465942,
        0.7586747407913208
      ],
      "min": [
        0.0050301868468523026,
        0.004999999888241291
      ],
      "type": "VEC2"
    },
    {
      "bufferView": 0,
      "componentType": 5125,
      "count": 5040,
      "max": [
        3159
      ],
      "min": [
        0
      ],
      "type": "SCALAR"
    },
    {
      "bufferView": 2,
      "byteOffset": 75840,
      "componentType": 5126,
      "count": 2363,
      "max": [
        19.334491729736328,
        20.015296936035156,
        -43.119136810302734
      ],
      "min": [
        -20.17106819152832,
        -20.239292144775391,
        -72.535202026367188
      ],
      "type": "VEC3"
    },
    {
      "bufferView": 2,
      "byteOffset": 104196,
      "componentType": 5126,
      "count": 2363,
      "max": [
        0.99847590923309326,
        0.99821931123733521,
        0.96621066331863403
      ],
      "min": [
        -0.99847602844238281,
        -0.99821931123733521,
        -0.98620402812957764
      ],
      "type": "VEC3"
    },
    {
      "bufferView": 1,
      "byteOffset": 50560,
      "componentType": 5126,
      "count": 2363,
      "max": [
        16.331750869750977,
        15.998106956481934
      ],
      "min": [
        -15.331747055053711,
        -15.033268928527832
      ],
      "type": "VEC2"
    },
    {
      "bufferView": 1,
      "byteOffset": 69464,
      "componentType": 5126,
      "count": 2363,
      "max": [
        0.90585339069366455,
        0.92598617076873779
      ],
      "min": [
        0.0050048460252583027,
        0.008160669356584549
      ],
      "type": "VEC2"
    },
    {
      "bufferView": 0,
      "byteOffset": 20160,
      "componentType": 5125,
      "count": 4632,
      "max": [
        2362
      ],
      "min": [
        0
      ],
      "type": "SCALAR"
    },
    {
      "bufferView": 2,
      "byteOffset": 132552,
      "componentType": 5126,
      "count": 2879,
      "max": [
        22.403003692626953,
        22.689163208007812,
        30.909387588500977
      ],
      "min": [
        -22.1644287109375,
        -22.483242034912109,
        -0.95163345336914062
      ],
      "type": "VEC3"
    },
    {
      "bufferView": 2,
      "byteOffset": 167100,
      "componentType": 5126,
      "count": 2879,
      "max": [
        0.99953979253768921,
        0.99109125137329102,
        0.99997121095657349
      ],
      "min": [
        -0.99527931213378906,
        -0.99655807018280029,
        -0.99971044063568115
      ],
      "type": "VEC3"
    },
    {
      "bufferView": 3,
      "byteOffset": 50560,
      "componentType": 5126,
      "count": 2879,
      "max": [
        0.9999995231628418,
        0.99999874830245972,
        0.90819233655929565,
        1
      ],
      "min": [
        -0.99998289346694946,
        -0.99998223781585693,
        -0.97325593233108521,
        -1
      ],
      "type": "VEC4"
    },
    {
      "bufferView": 1,
      "byteOffset": 88368,
      "componentType": 5126,
      "count": 2879,
      "max": [
        1.6084208488464355,
        1.6231428384780884
      ],
      "min": [
        -0.60945653915405273,
        -0.62314271926879883
      ],
      "type": "VEC2"
    },
    {
      "bufferView": 1,
      "byteOffset": 111400,
      "componentType": 5126,
      "count": 2879,
      "max": [
        0.72639006376266479,
        0.02917160838842392
      ],
      "min": [
        0.72639006376266479,
        0.02917160838842392
      ],
      "type": "VEC2"
    },
    {
      "bufferView": 0,
      "byteOffset": 38688,
      "componentType": 5125,
      "count": 11400,
      "max": [
        2878
      ],
      "min": [
        0
      ],
      "type": "SCALAR"
    }
  ],
  "asset": {
    "extras": {
      "author": "Lita.Ghitalau (https://sketchfab.com/Lita.Ghitalau)",
      "license": "CC-BY-4.0 (http://creativecommons.org/licenses/by/4.0/)",
      "source": "https://sketchfab.com/3d-models/jonstrup-bar-chair-ad689a436dc241a4b2195320e801fba8",
      "title": "JONSTRUP bar chair"
    },
    "generator": "Sketchfab-9.25.1",
    "version": "2.0"
  },
  "bufferViews": [
    {
      "buffer": 0,
      "byteLength": 84288,
      "byteOffset": 0,
      "name": "floatBufferViews",
      "target": 34963
    },
    {
      "buffer": 0,
      "byteLength": 134432,
      "byteOffset": 84288,
      "byteStride": 8,
      "name": "floatBufferViews",
      "target": 34962
    },
    {
      "buffer": 0,
      "byteLength": 201648,
      "byteOffset": 218720,
      "byteStride": 12,
      "name": "floatBufferViews",
      "target": 34962
    },
    {
      "buffer": 0,
      "byteLength": 96624,
      "byteOffset": 420368,
      "byteStride": 16,
      "name": "floatBufferViews",
      "target": 34962
    }
  ],
  "buffers": [
    {
      "byteLength": 516992,
      "uri": "scene.bin"
    }
  ],
  "extensionsRequired": [
    "KHR_materials_pbrSpecularGlossiness"
  ],
  "extensionsUsed": [
    "KHR_materials_pbrSpecularGlossiness"
  ],
  "images": [
    {
      "uri": "textures/OakWood00_diffuse.jpeg"
    },
    {
      "uri": "textures/OakWood00_specularGlossiness.jpeg"
    },
    {
      "uri": "textures/OakWood00_normal.jpeg"
    },
    {
      "uri": "textures/Leather00_diffuse.png"
    },
    {
      "uri": "textures/Leather00_specularGlossiness.png"
    },
    {
      "uri": "textures/Leather00_normal.png"
    }
  ],
  "materials": [
    {
      "doubleSided": true,
      "emissiveFactor": [
        0,
        0,
        0
      ],
      "extensions": {
        "KHR_materials_pbrSpecularGlossiness": {
          "diffuseFactor": [
            0.5,
            0.5,
            0.5,
            1
          ],
          "diffuseTexture": {
            "index": 0,
            "texCoord": 0
          },
          "glossinessFactor": 0.5165777439,
          "specularFactor": [
            0.17244664630000001,
            0.17244664630000001,
            0.17244664630000001
          ],
          "specularGlossinessTexture": {
            "index": 1,
            "texCoord": 0
          }
        }
      },
      "name": "OakWood00",
      "normalTexture": {
        "index": 2,
        "scale": 0.56878810980000005,
        "texCoord": 0
      }
    },
    {
      "doubleSided": true,
      "emissiveFactor": [
        0,
        0,
        0
      ],
      "extensions": {
        "KHR_materials_pbrSpecularGlossiness": {
          "diffuseFactor": [
            0.014117639999999999,
            0.014117639999999999,
            0.014117639999999999,
            1
          ],
          "glossinessFactor": 0.75438262200000006,
          "specularFactor": [
            0.068788109799999997,
            0.068788109799999997,
            0.068788109799999997
          ]
        }
      },
      "name": "BlackPaint00"
    },
    {
      "doubleSided": true,
      "emissiveFactor": [
        0,
        0,
        0
      ],
      "extensions": {
        "KHR_materials_pbrSpecularGlossiness": {
          "diffuseFactor": [
            0.5,
            0.5,
            0.5,
            1
          ],
          "diffuseTexture": {
            "index": 3,
            "texCoord": 0
          },
          "glossinessFactor": 1,
          "specularFactor": [
            0.0443978659,
            0.0443978659,
            0.0443978659
          ],
          "specularGlossinessTexture": {
            "index": 4,
            "texCoord": 0
          }
        }
      },
      "name": "Leather00",
      "normalTexture": {
        "index": 5,
        "scale": 0.25171493900000003,
        "texCoord": 0
      }
    }
  ],
  "meshes": [
    {
      "name": "Line002_OakWood00_0",
      "primitives": [
        {
          "attributes": {
            "NORMAL": 1,
            "POSITION": 0,
            "TANGENT": 2,
            "TEXCOORD_0": 3,
            "TEXCOORD_1": 4
          },
          "indices": 5,
          "material": 0,
          "mode": 4
        }
      ]
    },
    {
      "name": "Line002_BlackPaint00_0",
      "primitives": [
        {
          "attributes": {
            "NORMAL": 7,
            "POSITION": 6,
            "TEXCOORD_0": 8,
            "TEXCOORD_1": 9
          },
          "indices": 10,
          "material": 1,
          "mode": 4
        }
      ]
    },
    {
      "name": "Line002_Leather00_0",
      "primitives": [
        {
          "attributes": {
            "NORMAL": 12,
            "POSITION": 11,
            "TANGENT": 13,
            "TEXCOORD_0": 14,
            "TEXCOORD_1": 15
          },
          "indices": 16,
          "material": 2,
          "mode": 4
        }
      ]
    }
  ],
  "nodes": [
    {
      "children": [
        1
      ],
      "name": "RootNode (gltf orientation matrix)",
      "rotation": [
        -0.70710678118654746,
        -0,
        -0,
        0.70710678118654757
      ]
    },
    {
      "children": [
        2
      ],
      "matrix": [
        0.011979890055954456,
        0,
        0,
        0,
        0,
        -0.011979890055954456,
        0,
        0,
        0,
        0,
        -0.011979890055954456,
        0,
        0,
        5.6720800785114989e-05,
        -103.20858764648438,
        1
      ],
      "name": "RootNode (model correction matrix)"
    },
    {
      "children": [
        3
      ],
      "matrix": [
        1,
        0,
        0,
        0,
        0,
        -1,
        0,
        0,
        0,
        0,
        -1,
        0,
        0,
        0,
        0,
        1
      ],
      "name": "c3da504205f442c580b68c5eab2e6ba7.fbx"
    },
    {
      "children": [
        4
      ],
      "name": "RootNode"
    },
    {
      "children": [
        5
      ],
      "matrix": [
        1,
        0,
        0,
        0,
        0,
        1,
        0,
        0,
        0,
        0,
        1,
        0,
        0,
        4.3958425521850586e-06,
        0,
        1
      ],
      "name": "Line002"
    },
    {
      "children": [
        6,
        7,
        8
      ],
      "matrix": [
        1,
        0,
        -0,
        0,
        0,
        1,
        0,
        0,
        0,
        0,
        1,
        0,
        -0.11928749084472656,
        -0.10296058654785156,
        72.417221069335938,
        1
      ],
      "name": ""
    },
    {
      "mesh": 0,
      "name": "Line002_OakWood00_0"
    },
    {
      "mesh": 1,
      "name": "Line002_BlackPaint00_0"
    },
    {
      "mesh": 2,
      "name": "Line002_Leather00_0"
    }
  ],
  "samplers": [
    {
      "magFilter": 9729,
      "minFilter": 9987,
      "wrapS": 10497,
      "wrapT": 10497
    }
  ],
  "scene": 0,
  "scenes": [
    {
      "name": "OSG_Scene",
      "nodes": [
        0
      ]
    }
  ],
  "textures": [
    {
      "sampler": 0,
      "source": 0
    },
    {
      "sampler": 0,
      "source": 1
    },
    {
      "sampler": 0,
      "source": 2
    },
    {
      "sampler": 0,
      "source": 3
    },
    {
      "sampler": 0,
      "source": 4
    },
    {
      "sampler": 0,
      "source": 5
    }
  ]
}

