{
  "accessors": [
    {
      "bufferView": 2,
      "componentType": 5126,
      "count": 65532,
      "max": [
        55.979183197021484,
        58.057029724121094,
        37.254539489746094
      ],
      "min": [
        2.8747872420353815e-06,
        2.991681640196475e-06,
        1.0207951918781788e-15
      ],
      "type": "VEC3"
    },
    {
      "bufferView": 2,
      "byteOffset": 786384,
      "componentType": 5126,
      "count": 65532,
      "max": [
        1.0,
        1.0,
        1.0
      ],
      "min": [
        -1.0,
        -1.0,
        -1.0
      ],
      "type": "VEC3"
    },
    {
      "bufferView": 0,
      "componentType": 5125,
      "count": 259086,
      "type": "SCALAR"
    },
    {
      "bufferView": 2,
      "byteOffset": 1572768,
      "componentType": 5126,
      "count": 65532,
      "max": [
        57.621490478515625,
        55.979183197021484,
        31.988319396972656
      ],
      "min": [
        2.808077573776245,
        7.812773704528809,
        0.04024389013648033
      ],
      "type": "VEC3"
    },
    {
      "bufferView": 2,
      "byteOffset": 2359152,
      "componentType": 5126,
      "count": 65532,
      "max": [
        1.0,
        1.0,
        1.0
      ],
      "min": [
        -1.0,
        -1.0,
        -1.0
      ],
      "type": "VEC3"
    },
    {
      "bufferView": 0,
      "byteOffset": 1036344,
      "componentType": 5125,
      "count": 205971,
      "type": "SCALAR"
    },
    {
      "bufferView": 2,
      "byteOffset": 3145536,
      "componentType": 5126,
      "count": 33116,
      "max": [
        58.78725814819336,
        58.78725814819336,
        37.254539489746094
      ],
      "min": [
        9.333823204040527,
        0.7302332520484924,
        1.0207951918781788e-15
      ],
      "type": "VEC3"
    },
    {
      "bufferView": 2,
      "byteOffset": 3542928,
      "componentType": 5126,
      "count": 33116,
      "max": [
        1.0,
        1.0,
        1.0
      ],
      "min": [
        -1.0,
        -1.0,
        -1.0
      ],
      "type": "VEC3"
    },
    {
      "bufferView": 0,
      "byteOffset": 1860228,
      "componentType": 5125,
      "count": 140364,
      "type": "SCALAR"
    },
    {
      "bufferView": 2,
      "byteOffset": 3940320,
      "componentType": 5126,
      "count": 14074,
      "max": [
        30.908205032348633,
        31.040924072265625,
        17.41524314880371
      ],
      "min": [
        27.908206939697266,
        28.040925979614258,
        6.165244102478027
      ],
      "type": "VEC3"
    },
    {
      "bufferView": 2,
      "byteOffset": 4109208,
      "componentType": 5126,
      "count": 14074,
      "max": [
        1.0,
        1.0,
        1.0
      ],
      "min": [
        -1.0,
        -1.0,
        -1.0
      ],
      "type": "VEC3"
    },
    {
      "bufferView": 1,
      "componentType": 5126,
      "count": 14074,
      "max": [
        0.22341810166835785,
        1.0991849899291992
      ],
      "min": [
        -0.22139030694961548,
        -0.5732759237289429
      ],
      "type": "VEC2"
    },
    {
      "bufferView": 0,
      "byteOffset": 2421684,
      "componentType": 5125,
      "count": 20601,
      "type": "SCALAR"
    },
    {
      "bufferView": 2,
      "byteOffset": 4278096,
      "componentType": 5126,
      "count": 32,
      "max": [
        30.144533157348633,
        30.27725601196289,
        12.211234092712402
      ],
      "min": [
        28.49395179748535,
        28.804595947265625,
        11.740943908691406
      ],
      "type": "VEC3"
    },
    {
      "bufferView": 0,
      "byteOffset": 2504088,
      "componentType": 5125,
      "count": 56,
      "type": "SCALAR"
    }
  ],
  "asset": {
    "extras": {
      "author": "Truong Arch (https://sketchfab.com/kiemtruongkts)",
      "license": "CC-BY-4.0 (http://creativecommons.org/licenses/by/4.0/)",
      "source": "https://sketchfab.com/3d-models/cast-iron-table-and-chair-set-a42ba51cde634a05b5e5cc80ef2a5d4b",
      "title": "Cast iron table and chair set"
    },
    "generator": "Sketchfab-16.9.0",
    "version": "2.0"
  },
  "bufferViews": [
    {
      "buffer": 0,
      "byteLength": 2504312,
      "name": "floatBufferViews",
      "target": 34963
    },
    {
      "buffer": 0,
      "byteLength": 112592,
      "byteOffset": 2504312,
      "byteStride": 8,
      "name": "floatBufferViews",
      "target": 34962
    },
    {
      "buffer": 0,
      "byteLength": 4278480,
      "byteOffset": 2616904,
      "byteStride": 12,
      "name": "floatBufferViews",
      "target": 34962
    }
  ],
  "buffers": [
    {
      "byteLength": 6895384,
      "uri": "scene.bin"
    }
  ],
  "images": [
    {
      "uri": "textures/material_124_baseColor.jpeg"
    }
  ],
  "materials": [
    {
      "name": "Color_008_2",
      "pbrMetallicRoughness": {
        "baseColorFactor": [
          0.0,
          0.0,
          0.0,
          1.0
        ],
        "metallicFactor": 0.0,
        "roughnessFactor": 0.5775255696017358
      }
    },
    {
      "name": "material_124",
      "pbrMetallicRoughness": {
        "baseColorFactor": [
          0.0,
          0.0,
          0.0,
          1.0
        ],
        "baseColorTexture": {
          "index": 0
        },
        "metallicFactor": 0.0,
        "roughnessFactor": 0.6
      }
    },
    {
      "name": "edge_color535353255",
      "pbrMetallicRoughness": {
        "baseColorFactor": [
          0.0,
          0.0,
          0.0,
          1.0
        ],
        "metallicFactor": 0.0,
        "roughnessFactor": 0.6
      }
    }
  ],
  "meshes": [
    {
      "name": "Material2",
      "primitives": [
        {
          "attributes": {
            "NORMAL": 1,
            "POSITION": 0
          },
          "indices": 2,
          "material": 0,
          "mode": 4
        }
      ]
    },
    {
      "name": "Material2",
      "primitives": [
        {
          "attributes": {
            "NORMAL": 4,
            "POSITION": 3
          },
          "indices": 5,
          "material": 0,
          "mode": 4
        }
      ]
    },
    {
      "name": "Material2",
      "primitives": [
        {
          "attributes": {
            "NORMAL": 7,
            "POSITION": 6
          },
          "indices": 8,
          "material": 0,
          "mode": 4
        }
      ]
    },
    {
      "name": "Material3",
      "primitives": [
        {
          "attributes": {
            "NORMAL": 10,
            "POSITION": 9,
            "TEXCOORD_0": 11
          },
          "indices": 12,
          "material": 1,
          "mode": 4
        }
      ]
    },
    {
      "name": "Material2",
      "primitives": [
        {
          "attributes": {
            "POSITION": 13
          },
          "indices": 14,
          "material": 2,
          "mode": 1
        }
      ]
    }
  ],
  "nodes": [
    {
      "children": [
        1
      ],
      "matrix": [
        1.0,
        0.0,
        0.0,
        0.0,
        0.0,
        2.220446049250313e-16,
        -1.0,
        0.0,
        0.0,
        1.0,
        2.220446049250313e-16,
        0.0,
        0.0,
        0.0,
        0.0,
        1.0
      ],
      "name": "Sketchfab_model"
    },
    {
      "children": [
        2,
        3,
        4,
        5,
        6,
        7
      ],
      "name": "Collada visual scene group"
    },
    {
      "mesh": 0,
      "name": "Material2"
    },
    {
      "mesh": 1,
      "name": "Material2"
    },
    {
      "mesh": 2,
      "name": "Material2"
    },
    {
      "mesh": 3,
      "name": "Material3"
    },
    {
      "mesh": 4,
      "name": "Material2"
    },
    {
      "children": [
        8
      ],
      "name": "SketchUp"
    },
    {
      "children": [
        9
      ],
      "matrix": [
        0.9999954,
        -0.003054352,
        -2.168404e-19,
        0.0,
        0.001166274,
        0.3818384,
        0.9242284,
        0.0,
        -0.002822919,
        -0.9242241,
        0.3818401,
        0.0,
        29.06985,
        -74.56357,
        58.09732,
        1.0
      ],
      "name": "skp_camera_Last_Saved_SketchUp_View"
    },
    {
      "name": "ID1"
    }
  ],
  "samplers": [
    {
      "magFilter": 9729,
      "minFilter": 9987,
      "wrapS": 10497,
      "wrapT": 10497
    }
  ],
  "scene": 0,
  "scenes": [
    {
      "name": "Sketchfab_Scene",
      "nodes": [
        0
      ]
    }
  ],
  "textures": [
    {
      "sampler": 0,
      "source": 0
    }
  ]
}
